PathFileType	4	(X/Y/Z)	Patient4_TMGait_0pt4_02_right_41.trc.trc
DataRate	CameraRate	NumFrames	NumMarkers	Units	OrigDataRate	OrigDataStartFrame	OrigNumFrames
78.651685393258	78.651685393258	5	33	mm	78.651685393258	106	       141
Frame#	Time	Sacral			L.Shoulder			Chest			R.Shoulder			Neck			R.ASIS			L.ASIS			R.Thigh.Superior			R.Thigh.Lateral			R.Thigh.Inferior			R.Patella			L.Thigh.Superior			L.Thigh.Lateral			L.Thigh.Inferior			L.Patella			L.Shank.Superior			L.Shank.Lateral			L.Shank.Inferior			R.Shank.Superior			R.Shank.Lateral			R.Shank.Inferior			R.Heel			R.Midfoot.Superior			R.Midfoot.Lateral			R.Toe			L.Heel			L.Midfoot.Lateral			L.Midfoot.Superior			L.Toe			L.Elbow			L.Wrist			R.Elbow			R.Wrist			
		X1	Y1	Z1	X2	Y2	Z2	X3	Y3	Z3	X4	Y4	Z4	X5	Y5	Z5	X6	Y6	Z6	X7	Y7	Z7	X8	Y8	Z8	X9	Y9	Z9	X10	Y10	Z10	X11	Y11	Z11	X12	Y12	Z12	X13	Y13	Z13	X14	Y14	Z14	X15	Y15	Z15	X16	Y16	Z16	X17	Y17	Z17	X18	Y18	Z18	X19	Y19	Z19	X20	Y20	Z20	X21	Y21	Z21	X22	Y22	Z22	X23	Y23	Z23	X24	Y24	Z24	X25	Y25	Z25	X26	Y26	Z26	X27	Y27	Z27	X28	Y28	Z28	X29	Y29	Z29	X30	Y30	Z30	X31	Y31	Z31	X32	Y32	Z32	X33	Y33	Z33	

106	55.405000000000	867.341859810030	1001.946243494196	447.069910767600	1048.489504869804	1440.977917860325	270.358631882929	1142.185343603551	1369.813196955572	435.663923727046	1048.797399022047	1435.269041634714	607.397914761591	1022.750908754238	1499.231380985946	428.840327878250	1098.159825230697	951.263309208140	567.648080611332	1085.540634858151	967.795959777040	292.558472174093	1187.526046249549	782.482228143013	538.467624197472	1154.143468774150	663.948456530644	621.148979026062	1239.485747953059	624.189120133948	538.076754288820	1270.840476859516	526.972782658246	563.836754990017	1132.173185367927	750.709373345698	329.055194624254	1042.135479174346	634.581079834258	268.025547385645	1120.336947453465	556.542774839817	335.969466763000	1117.583968264706	487.558188524847	348.156908805772	1089.881019248172	415.061755017655	340.924902740026	1000.208453969935	301.921108785099	288.212292865717	1041.038515144016	191.268044798401	365.588865646348	1223.879707785454	439.992408279568	580.686212958406	1132.519191250319	360.884173579820	651.960676920329	1161.404152609058	251.731219687125	608.618181243037	1003.349835737777	113.455594512997	596.334115578492	1182.365175315837	128.659457771615	631.256825238707	1083.238422365748	88.257902969185	670.490850099091	1285.899899614522	52.070000420777	660.438977777606	907.293017164709	38.651017650305	405.209865668964	983.744786718683	35.839138979870	326.593237299022	1066.448782963891	96.155445572431	357.075317886611	1196.052626791571	42.604160675749	332.663655556768	1106.054172602554	1105.154505877817	124.448165712917	1328.731854823072	969.135168377926	148.862267566457	990.163874587971	1091.403284902677	725.369329681680	1036.575377520238	834.120123039471	742.765627314284	
107	55.417714285714	866.349208483353	1002.405281586816	446.388868375963	1050.081303358971	1441.042115342338	270.931412607084	1142.360512753013	1369.390529029777	436.827822399434	1048.001813623545	1435.205470784351	607.897910215753	1023.273518801028	1499.231213666118	429.333524651500	1096.601313437363	951.140181101442	568.324715772148	1085.315894767511	967.882742225353	293.014491584883	1184.552677969691	781.421567407879	539.773035029940	1150.337677059806	663.590359225082	622.750770586491	1235.345029710616	623.168446076536	539.562513101991	1267.604944994211	528.325930351635	564.957953822849	1130.038567249908	750.108552972684	329.540379867407	1039.317908013981	634.580682072608	267.989472024323	1116.751818366104	556.054657424121	336.068463184366	1113.492234366119	487.140215847210	348.179642137089	1085.668267743256	414.743315433379	340.878831442985	995.696343570753	301.842664626142	288.107467060079	1036.192828278762	191.086014278577	365.516022818727	1225.064790762408	440.980256576081	582.343806358428	1139.257714765697	356.968401687863	654.745367692055	1174.018033910924	249.515090884419	610.923618339225	1024.410314971503	102.042204877081	599.696866530589	1202.519268838694	127.265928288345	633.508662816877	1106.046868222463	81.687876867493	673.491717103563	1310.384613887486	56.882749159154	662.535302998944	902.198709031835	38.638994626341	405.171622908860	978.625654382668	35.814632442008	326.544059178576	1061.327025910135	96.106885319693	357.050133354432	1190.943163219149	42.542154635402	332.637423270630	1109.210310912861	1106.256476643459	124.173890797579	1336.001742712545	977.915131494504	149.800420476736	979.919360531065	1094.201483329488	727.110991386548	1019.074289358446	836.270019442798	747.746112049482	
108	55.430428571429	865.440166509575	1002.828568839582	445.895720240233	1051.603269556115	1441.010714130808	271.658808512134	1142.571437203835	1368.930029278785	438.098438259992	1047.331255644018	1435.155746365556	608.533379426974	1023.808184695539	1499.173664319167	429.960270311374	1095.133389627214	950.888995725495	569.098223189562	1085.076174191996	967.874081322417	293.590217708235	1181.333526745829	779.925826217618	541.209247605197	1146.147123597780	662.968622249850	624.546878379739	1230.817941691679	621.779558435680	541.248395546575	1263.878015154577	529.277236014898	566.170989475106	1127.974294605207	749.486423080138	330.072327353602	1036.577781726569	634.563476595012	268.053213129623	1113.234825630997	555.553039523736	336.281851567667	1109.464216660812	486.710984058941	348.321436523109	1081.509961678176	414.412376469252	340.936056073828	991.245745756808	301.768881076045	288.080848732878	1031.373758580619	190.893548442003	365.500956603778	1225.670951035867	441.851352921187	584.003314851303	1145.618653810985	353.318466420057	657.604786041694	1185.849772455836	247.854802784195	613.104317586595	1044.847228478404	91.957281323023	603.093408692446	1221.657086229027	126.638448976754	635.417016511113	1128.091668230109	76.201388212862	676.283590093563	1333.420076422061	62.365194182714	663.888982035520	897.101697493423	38.627922121224	405.135822472745	973.506491318844	35.793385011672	326.503103526775	1056.213152711205	96.057523732503	357.036000650281	1185.833070336878	42.476099505455	332.615605404402	1112.059177009291	1107.172295354854	124.146768252562	1342.491685717526	986.289720926639	150.883217945086	969.961769979695	1097.201283720379	728.763246988399	1002.531891492352	838.892483452460	752.084143868306	
109	55.443142857143	864.623393703407	1003.205854671546	445.602609426428	1053.024335164563	1440.908008414741	272.539169394284	1142.800604509854	1368.454067322985	439.471325005706	1046.771582514517	1435.120246124672	609.308863753851	1024.335630507822	1499.072570252014	430.724390053052	1093.767173203925	950.543583983513	569.975915770451	1084.835299666748	967.781220291382	294.297750014159	1177.988568894165	778.117474690199	542.754804042969	1141.775206370313	662.163219159391	626.519654343456	1226.104640038452	620.139543079667	543.104619281324	1259.836536699445	529.867716037824	567.490574664482	1125.996296041384	748.851440960935	330.705335983431	1033.942749670984	634.532591844909	268.234035643527	1109.792858196096	555.038643354265	336.643616556018	1105.501476043332	486.271376480273	348.605091647872	1077.407393053920	414.072218536194	341.112859088659	986.863239593125	301.704927971891	288.139011189662	1026.580546788745	190.694462991390	365.550085898713	1225.752970670355	442.606099730397	585.654549906140	1151.416478037257	350.008686949225	660.416638137423	1196.619030654779	246.724102496751	615.089539207397	1064.078867959878	83.312187630706	606.323150733023	1239.305064624044	126.689585753132	636.917092015072	1148.773696282873	71.771134185330	678.714965046560	1354.492531964348	68.250117851926	664.469975537269	891.999809050536	38.621626697535	405.102195521428	968.386544140314	35.775573211189	326.471764114585	1051.108588274194	96.010301608086	357.032351999429	1180.722514297261	42.407593757890	332.598456619162	1114.604553772904	1107.914302740162	124.373809002416	1348.211658124770	994.171227086191	152.113400705438	960.427128258181	1100.332407361955	730.292298463489	986.986288893863	841.809651305987	755.821805917864	
110	55.455857142857	863.905396382119	1003.529012078160	445.521095064738	1054.317500391840	1440.760204099426	273.570204668188	1143.029093296507	1367.985379864858	440.943517053406	1046.302255934096	1435.098252899300	610.228260120077	1024.835315555454	1498.942807144928	431.629181523959	1092.510396470429	950.139166516706	570.969883781834	1084.613905233224	967.622553784142	295.151109954836	1174.656423456618	776.143077888802	544.386922666620	1137.434342293225	661.247397710458	628.625233313928	1221.414066057524	618.366949625262	545.083203616444	1255.663935011386	530.143224168370	568.918098188472	1124.112714187321	748.210255146074	331.493800466115	1031.429980457501	634.492185064333	268.549659635916	1106.426578128112	554.512414472440	337.180642136417	1101.600020466811	485.823578543785	349.047059818967	1073.357721504156	413.728355269510	341.419836927971	982.548823179604	301.657993175953	288.284703528937	1021.810785049884	190.494266731253	365.664975228719	1225.370283128070	443.225722594165	587.284740588905	1156.440132313067	347.076814597030	663.050708903909	1206.040533361572	246.038048910991	616.824103159996	1081.494779430720	76.130115651983	609.180217085928	1254.979472994184	127.262108586820	637.987806669377	1167.455535759937	68.290993826063	680.658819238490	1373.085112657566	74.190037420087	664.343858067792	886.892161876546	38.624675869966	405.070291672662	963.265349237576	35.761927417301	326.450561609060	1046.014192457648	95.968213533956	357.037690395033	1175.611486357850	42.338053500750	332.586080287934	1116.842573586192	1108.497628345639	124.860834375041	1353.174173401413	1001.475820277600	153.491669341245	951.443624578119	1103.510909358326	731.675042780377	972.486516886308	844.862392668725	758.998522449790	
